<?xml version="1.0" standalone="no"?>
<!DOCTYPE svg PUBLIC "-//W3C//DTD SVG 20010904//EN"
 "http://www.w3.org/TR/2001/REC-SVG-20010904/DTD/svg10.dtd">
<svg version="1.0" xmlns="http://www.w3.org/2000/svg"
 width="700.000000pt" height="700.000000pt" viewBox="0 0 700.000000 700.000000"
 preserveAspectRatio="xMidYMid meet">
<metadata>
Created by potrace 1.11, written by Peter Selinger 2001-2013
</metadata>
<g transform="translate(0.000000,700.000000) scale(0.100000,-0.100000)"
fill="#000000" stroke="none">
<path d="M3200 6983 c-139 -15 -293 -37 -395 -58 -915 -185 -1716 -730 -2230
-1515 -313 -477 -498 -1007 -555 -1580 -14 -148 -14 -512 0 -660 79 -806 429
-1552 997 -2127 505 -511 1161 -856 1863 -982 396 -71 844 -71 1240 0 692 124
1350 468 1850 969 505 505 854 1177 974 1875 46 264 61 668 36 927 -104 1055
-671 1997 -1555 2583 -470 311 -985 497 -1555 560 -123 14 -567 19 -670 8z
m655 -678 c483 -64 909 -232 1303 -513 50 -37 92 -69 92 -72 0 -3 -198 -203
-439 -444 l-440 -440 -118 115 c-176 170 -367 327 -583 479 -111 78 -368 240
-382 240 -4 0 -8 -35 -8 -77 0 -263 -55 -582 -137 -803 -111 -299 -252 -490
-622 -840 -316 -299 -441 -488 -498 -750 -14 -68 -18 -127 -17 -290 0 -185 3
-214 25 -297 l25 -92 -388 -388 c-213 -213 -389 -385 -391 -383 -2 3 -29 39
-59 80 -426 582 -613 1304 -523 2026 133 1074 878 1982 1906 2325 222 74 467
123 724 143 100 8 413 -3 530 -19z m1891 -1083 c213 -274 396 -649 489 -1006
142 -540 119 -1120 -66 -1653 -53 -153 -187 -429 -277 -571 -832 -1312 -2557
-1712 -3877 -899 -68 41 -265 181 -265 187 0 3 159 164 353 357 l352 352 70
-45 c148 -96 326 -174 399 -174 76 0 144 63 153 143 5 38 -1 60 -40 144 -52
113 -83 203 -107 314 l-16 78 342 342 c189 189 345 341 347 339 2 -3 18 -32
37 -65 51 -94 104 -167 210 -294 257 -309 297 -407 285 -686 -7 -136 -6 -141
16 -174 35 -49 70 -72 122 -78 40 -5 57 0 129 37 141 71 247 149 363 265 193
193 299 388 357 658 19 88 22 134 22 337 1 251 -5 297 -61 515 -47 181 -164
451 -266 615 l-35 55 467 468 c256 257 468 467 471 466 3 0 14 -12 26 -27z"/>
</g>
</svg>
